# xmcd CD database file
#
# Track frame offsets:
#	150
#	13210
#	27766
#	41685
#	56517
#	68510
#	80890
#	94635
#	107150
#	121483
#	135624
#	149056
#	160613
#	171954
#	186895
#	200190
#	214722
#	229650
#	244752
#	258673
#	272730
#	286423
#	301827
#	316567
#
# Disc length: 4389 seconds
#
# Revision: 0
# Processed by: cddbd v1.4PL0 Copyright (c) Steve Scherf et al.
# Submitted via: CDex 1.50
#
DISCID=5e112318
DTITLE=Stephane Grappelli - Stephane's Tune
DYEAR=1996
DGENRE=Jazz
TTITLE0=It Had to be You
TTITLE1=Nocturne
TTITLE2=Je Veux Ce Soir
TTITLE3=Out of Nowhere
TTITLE4=Baby
TTITLE5=I Got Rhythm
TTITLE6=In the Mood
TTITLE7=Oh! Lady Be Good
TTITLE8=The Sheik of Araby
TTITLE9=After You've Gone
TTITLE10=Stephane's Tune
TTITLE11=Sweet Sue - Just You
TTITLE12=Tiger Rag
TTITLE13=Stephane Blues
TTITLE14=Noel Brings that Swing
TTITLE15=Dinah
TTITLE16=Body and Soul
TTITLE17=Jive Bomber
TTITLE18=Liza
TTITLE19=Three O'clock in the Morning
TTITLE20=That Old Black Magic
TTITLE21=Star Eyes
TTITLE22=Confessin'
TTITLE23=Someday Sweetheart
EXTD=YEAR: 1996
EXTT0=
EXTT1=
EXTT2=
EXTT3=
EXTT4=
EXTT5=
EXTT6=
EXTT7=
EXTT8=
EXTT9=
EXTT10=
EXTT11=
EXTT12=
EXTT13=
EXTT14=
EXTT15=
EXTT16=
EXTT17=
EXTT18=
EXTT19=
EXTT20=
EXTT21=
EXTT22=
EXTT23=
PLAYORDER=
